<svg version="1.2" xmlns="http://www.w3.org/2000/svg" viewBox="80.00000000000001 62.000000000000014 590.0000000000001 368" width="591" height="368">
	<defs>
		<linearGradient id="g1" x2="1" gradientUnits="userSpaceOnUse" gradientTransform="matrix(384.978,-384.978,117.398,117.398,123.812,474.178)">
			<stop offset=".338" stop-color="#dde1ff"/>
			<stop offset="1" stop-color="#e5bfdb"/>
		</linearGradient>
		<linearGradient id="g2" x2="1" gradientUnits="userSpaceOnUse" gradientTransform="matrix(172.892,0,0,60.554,283.16,250.797)">
			<stop offset=".338" stop-color="#dde1ff"/>
			<stop offset="1" stop-color="#e5bfdb"/>
		</linearGradient>
	</defs>
	<style>
		.s0 { fill: url(#g1) } 
		.s1 { fill: url(#g2) } 
	</style>
	<g id="Folder 2">
		<path id="&lt;Path&gt;" class="s0" d="m79.99 264.64c0 0 81.05-2.14 86.07-3.13q12.26 0.34 24.28 1.21 7.88-2.95 15.8-5.71 3.94-0.24 7.86-0.42 6.33 3.19 12.51 6.56 5.73-1.82 11.49-3.53 10.16 3.2 20.02 6.84 4.44 1.21 8.83 2.51 7.12-1.77 14.25-3.37 7.84 2.15 15.51 4.57 6.63-1.3 13.26-2.44 9.94 2.4 19.64 5.23 5.99 1.2 11.91 2.56c22.73-2.52 45.44-3.56 68.01-3.06q9.04-1.9 18.17-3.49 4.69-4.74 9.49-9.43 10.64-4.04 21.48-7.71 9.41 1.06 18.77 2.5 5.57-1.94 11.21-3.76 11.19 0.73 22.34 2 3.59-1.1 7.21-2.15 9.83 2.42 19.56 5.3 7.65-0.69 15.35-1.13 3.15 1.39 6.27 2.83 3.26-0.82 6.53-1.6c5.15 1.18 104.2 3.85 104.2 3.85v170.68h-590.02z"/>
		<path id="&lt;Path&gt;" class="s1" d="m283.16 311.35l29.66-33.78 10.62-2.06 14.56-12.35 6.77 1.64 6.77-3.7 4.74-7.01 10.15-3.29 16.59 12.36 7.79 1.64 4.06-0.82 1.86-1.24 3.05 1.03 2.37 3.16h3.21l7.62 7.55 5.75 1.65 8.8 8.03 28.52 27.19z"/>
	</g>
</svg>