<svg xmlns="http://www.w3.org/2000/svg" width="589" height="368" viewBox="58 84 588 368"><defs><linearGradient id="a" x2="1" gradientTransform="matrix(385 -385 117 117 101 496)" gradientUnits="userSpaceOnUse"><stop offset=".3" stop-color="#dde1ff"/><stop offset="1" stop-color="#e5bfdb"/></linearGradient><linearGradient id="b" x2="1" gradientTransform="matrix(173 0 0 61 260 273)" gradientUnits="userSpaceOnUse"><stop offset=".3" stop-color="#dde1ff"/><stop offset="1" stop-color="#e5bfdb"/></linearGradient></defs><path d="m57 287 86-3 24 1 16-6h8l13 6 11-3 20 6 9 3 14-3 16 4 13-2 20 5 11 3q35-4 68-4l19-3 9-9 22-8 18 2 12-3 22 2 7-3 20 6 15-1 6 2 7-1 104 4v170H57z" style="fill:url(#a)"/><path d="m260 333 30-33 10-2 15-13 7 2 7-4 4-7 10-3 17 12 8 2 4-1 2-1 3 1 2 3h3l8 7 6 2 9 8 28 27z" style="fill:url(#b)"/></svg>