<svg xmlns="http://www.w3.org/2000/svg" width="589" height="368" viewBox="58 84 588 368"><defs><linearGradient id="a" x2="1" gradientTransform="matrix(590 0 0 209 57 243)" gradientUnits="userSpaceOnUse"><stop offset="0" stop-color="#b4cdf4"/><stop offset="1" stop-color="#c5def9"/></linearGradient><linearGradient id="b" x2="1" gradientTransform="matrix(0 -235 93 0 305 452)" gradientUnits="userSpaceOnUse"><stop offset=".5" stop-color="#a59cd7"/><stop offset="1" stop-color="#7281bb"/></linearGradient><linearGradient id="c" x2="1" gradientTransform="matrix(398 -398 138 138 84 479)" gradientUnits="userSpaceOnUse"><stop offset="0" stop-color="#798ac8"/><stop offset="1" stop-color="#5264b4"/></linearGradient><linearGradient id="d" x2="1" gradientTransform="matrix(51 -51 13 13 66 325)" gradientUnits="userSpaceOnUse"><stop offset="0" stop-color="#fff" stop-opacity="0"/><stop offset="1" stop-color="#fff"/></linearGradient><linearGradient id="e" x2="1" gradientTransform="matrix(22 -22 14 14 176 329)" gradientUnits="userSpaceOnUse"><stop offset="0" stop-color="#fff" stop-opacity="0"/><stop offset="1" stop-color="#fff"/></linearGradient><linearGradient id="f" x2="1" gradientTransform="matrix(56 -56 52 52 452 321)" gradientUnits="userSpaceOnUse"><stop offset="0" stop-color="#fff" stop-opacity="0"/><stop offset="1" stop-color="#fff"/></linearGradient><linearGradient id="g" x2="1" gradientTransform="matrix(43 -43 29 29 565 277)" gradientUnits="userSpaceOnUse"><stop offset="0" stop-color="#fff" stop-opacity="0"/><stop offset="1" stop-color="#fff"/></linearGradient><linearGradient id="h" x2="1" gradientTransform="matrix(249 0 0 61 220 329)" gradientUnits="userSpaceOnUse"><stop offset="0" stop-color="#cfa5cf"/><stop offset="1" stop-color="#c7ccfc"/></linearGradient><linearGradient id="i" x2="1" gradientTransform="matrix(69 0 0 60 523 231)" gradientUnits="userSpaceOnUse"><stop offset="0" stop-color="#fff" stop-opacity="0"/><stop offset="1" stop-color="#fff"/></linearGradient><linearGradient id="j" x2="1" gradientTransform="matrix(61 0 0 34 83 261)" gradientUnits="userSpaceOnUse"><stop offset="0" stop-color="#fff"/><stop offset="1" stop-color="#fff" stop-opacity="0"/></linearGradient></defs><path d="m537 247-14 11-18 4-17 12h-15l-7-5-8 12h-7l-10 6h-11l-9 7h-11l-22 16-25 14-21 5-20-8-13-8-10-15-11 1-7-11-17 13-7-5-8 3-8-3-8 1-18-14-8 2-6-7-36 1-15-1-5 4-18-8-7-6-24-9H75l-6-8-12-8v209h590" style="fill:url(#a)"/><path d="m359 337 29-27 14 9 28-17 20 6 30-21h11l8-13h24l14-27 10-11 16 11 29-16h13l6-7h11l8-6h17v234H57V243l12 8 6 7 14 3 13 8 7 11 15 2 14 5 24 10 30 2 8 3h20l14 10h15l30 16 17 6 26-1z" style="fill:url(#b)"/><path d="m647 247-20 5-29 18h-22l-10 4-15 17h-16l-26 21-11 7h-10l-22 13h-19l-17 13-17 7H264l-26-7-22-15-9-14h-27l-14-8-22-3-9-6h-28l-11-8-9 1-8-5-22-3v168h590z" style="fill:url(#c)"/><path d="m57 295 29 8 11-2 10-2h28l3 9-2 8-39-8-40 5z" style="opacity:.4;mix-blend-mode:soft-light;fill:url(#d)"/><path d="m180 316 10 17 14-3 3-14z" style="opacity:.4;mix-blend-mode:soft-light;fill:url(#e)"/><path d="M535 291v17l-12 6v16l-25 15h-22l19-12 3-14 11-7z" style="opacity:.4;mix-blend-mode:soft-light;fill:url(#f)"/><path d="M627 252v18l-19 17-14-7-8 1-10-11h22z" style="opacity:.4;mix-blend-mode:soft-light;fill:url(#g)"/><path d="m220 354 44-2 12-7h19l1-11-13-5h59l-6 5-6 3 8 6 7 2h35l33 7h56l-23 15h-23l-23 19h-37l-23 5-21-3-19 2-25-9-23 1-19-13z" style="fill:url(#h)"/><path d="m592 231-10 16-14 11h16l1 12h-9l-10 4-15 17-8-13-20-4 26-4 14-18v-5z" style="opacity:.4;mix-blend-mode:soft-light;fill:url(#i)"/><path d="m89 261-6 11 11 4 11 15h17l21 4-19-13-15-2-7-11z" style="opacity:.4;mix-blend-mode:soft-light;fill:url(#j)"/></svg>