<svg xmlns="http://www.w3.org/2000/svg" width="589" height="368" viewBox="58 84 588 368"><defs><linearGradient id="a" x2="1" gradientTransform="matrix(0 -165 46 0 329 452)" gradientUnits="userSpaceOnUse"><stop offset="0" stop-color="#204e9c"/><stop offset="1" stop-color="#203e84"/></linearGradient><linearGradient id="b" x2="1" gradientTransform="matrix(0 -48 27 0 560 335)" gradientUnits="userSpaceOnUse"><stop offset="0" stop-color="#fff" stop-opacity="0"/><stop offset="1" stop-color="#fff"/></linearGradient><linearGradient id="c" x2="1" gradientTransform="matrix(0 -68 45 0 448 399)" gradientUnits="userSpaceOnUse"><stop offset="0" stop-color="#fff" stop-opacity="0"/><stop offset="1" stop-color="#fff"/></linearGradient><linearGradient id="d" x2="1" gradientTransform="matrix(0 -34 32 0 186 367)" gradientUnits="userSpaceOnUse"><stop offset="0" stop-color="#fff" stop-opacity="0"/><stop offset="1" stop-color="#fff"/></linearGradient><linearGradient id="e" x2="1" gradientTransform="matrix(0 -32 17 0 384 399)" gradientUnits="userSpaceOnUse"><stop offset="0" stop-color="#fff" stop-opacity="0"/><stop offset="1" stop-color="#fff"/></linearGradient><linearGradient id="f" x2="1" gradientTransform="matrix(0 -144 35 0 334 452)" gradientUnits="userSpaceOnUse"><stop offset="0" stop-color="#4a4e7a"/><stop offset="1" stop-color="#262a5f"/></linearGradient><linearGradient id="g" x2="1" gradientTransform="matrix(88 0 0 65 529 308)" gradientUnits="userSpaceOnUse"><stop offset="0" stop-color="#fff" stop-opacity="0"/><stop offset="1" stop-color="#fff"/></linearGradient><linearGradient id="h" x2="1" gradientTransform="matrix(92 0 0 50 408 366)" gradientUnits="userSpaceOnUse"><stop offset=".2" stop-color="#fff" stop-opacity="0"/><stop offset="1" stop-color="#fff"/></linearGradient><linearGradient id="i" x2="1" gradientTransform="matrix(0 -89 54 0 104 397)" gradientUnits="userSpaceOnUse"><stop offset="0" stop-color="#fff" stop-opacity="0"/><stop offset="1" stop-color="#fff"/></linearGradient><linearGradient id="j" x2="1" gradientTransform="matrix(0 -95 15 0 344 452)" gradientUnits="userSpaceOnUse"><stop offset="0" stop-color="#262a5f"/><stop offset="1" stop-color="#020729"/></linearGradient><linearGradient id="k" x2="1" gradientTransform="matrix(0 -79 49 0 446 452)" gradientUnits="userSpaceOnUse"><stop offset="0" stop-color="#fff" stop-opacity="0"/><stop offset="1" stop-color="#fff"/></linearGradient><linearGradient id="l" x2="1" gradientTransform="matrix(0 -95 119 0 35 452)" gradientUnits="userSpaceOnUse"><stop offset="0" stop-color="#fff" stop-opacity="0"/><stop offset="1" stop-color="#fff"/></linearGradient><linearGradient id="m" x2="1" gradientTransform="matrix(174 0 0 36 220 416)" gradientUnits="userSpaceOnUse"><stop offset="0" stop-color="#fff" stop-opacity="0"/><stop offset="1" stop-color="#fff"/></linearGradient></defs><path d="M363 385h37l23-18h23l30-22h22l25-15 8-9h27l8-13 11-8 31-13h39v165H57V313l40-5 39 8 13 11 41 6 19 16 11 5 13 15 19 13 23-1 25 9 19-2 21 3z" style="fill:url(#a)"/><path d="m608 287 9 21-45 17-20 10-18-6-3-8h27l8-13 11-8z" style="opacity:.4;mix-blend-mode:soft-light;fill:url(#b)"/><path d="m498 345 25-15-23 36-44 22-15 10-23 1 30-19-2-13 30-22z" style="opacity:.4;mix-blend-mode:soft-light;fill:url(#c)"/><path d="m190 333-6 8 17 19 19 7v-13l-11-5z" style="opacity:.4;mix-blend-mode:soft-light;fill:url(#d)"/><path d="M423 367v12l-15 15-28 5-17-13h37z" style="opacity:.4;mix-blend-mode:soft-light;fill:url(#e)"/><path d="m57 313 40-5 42 17 36 6 26 29 27 22h24l44 12h15l51 19 56-14 23-1 15-10 44-22 47-6 25-35 45-17h30v144H57z" style="fill:url(#f)"/><path d="m617 308-27 14 9 11-18 13-10 21-42 6 18-6v-7l25-35z" style="opacity:.4;mix-blend-mode:soft-light;fill:url(#g)"/><path d="m500 366-22 25-2 17h-24l-44 8 33-18 15-10z" style="opacity:.4;mix-blend-mode:soft-light;fill:url(#h)"/><path d="m97 308 46 32 11 13 20 25 30 19-47-4-25-24-45-11H57v-45z" style="opacity:.4;mix-blend-mode:soft-light;fill:url(#i)"/><path d="m647 361-40-3-42 11-36 4-26 20-27 15h-24l-44 8h-15l-51 13-56-10h-23l-15-7-44-15-47-4-25-24-45-11H57v94h590z" style="fill:url(#j)"/><path d="m529 373 5 18-20 5-12 10 10 7-27 39h-78l51-10 18-34 27-15z" style="opacity:.4;mix-blend-mode:soft-light;fill:url(#k)"/><path d="m132 369-38 22 10 19-47 42v-94h30z" style="opacity:.4;mix-blend-mode:soft-light;fill:url(#l)"/><path d="m393 416-26 36h9-156 34l45-16 35 1 8-8z" style="opacity:.4;mix-blend-mode:soft-light;fill:url(#m)"/></svg>